<?xml version="1.0" encoding="UTF-8" standalone="no"?>
<!-- Created with Inkscape (http://www.inkscape.org/) -->

<svg
   xmlns:dc="http://purl.org/dc/elements/1.1/"
   xmlns:cc="http://creativecommons.org/ns#"
   xmlns:rdf="http://www.w3.org/1999/02/22-rdf-syntax-ns#"
   xmlns:svg="http://www.w3.org/2000/svg"
   xmlns="http://www.w3.org/2000/svg"
   xmlns:sodipodi="http://sodipodi.sourceforge.net/DTD/sodipodi-0.dtd"
   xmlns:inkscape="http://www.inkscape.org/namespaces/inkscape"
   width="177mm"
   height="110mm"
   viewBox="0 0 177 110"
   version="1.1"
   id="svg867"
   inkscape:version="0.92.4 (5da689c313, 2019-01-14)"
   sodipodi:docname="logo.svg">
  <defs
     id="defs861" />
  <sodipodi:namedview
     id="base"
     pagecolor="#ffffff"
     bordercolor="#666666"
     borderopacity="1.0"
     inkscape:pageopacity="0.0"
     inkscape:pageshadow="2"
     inkscape:zoom="0.49497475"
     inkscape:cx="-457.14716"
     inkscape:cy="680.34192"
     inkscape:document-units="mm"
     inkscape:current-layer="svg867"
     showgrid="false"
     inkscape:window-width="1920"
     inkscape:window-height="1016"
     inkscape:window-x="0"
     inkscape:window-y="27"
     inkscape:window-maximized="1" />
  <metadata
     id="metadata864">
    <rdf:RDF>
      <cc:Work
         rdf:about="">
        <dc:format>image/svg+xml</dc:format>
        <dc:type
           rdf:resource="http://purl.org/dc/dcmitype/StillImage" />
        <dc:title></dc:title>
      </cc:Work>
    </rdf:RDF>
  </metadata>
  <g
     id="g4748"
     inkscape:export-xdpi="96"
     inkscape:export-ydpi="96"
     transform="translate(-16.499992,-90.577948)">
    <g
       style="fill:#28170b;fill-opacity:1"
       id="g14"
       transform="matrix(0.12930314,0,0,0.12930314,220.58477,58.481171)">
      <g
         style="fill:#1a0a00;fill-opacity:1;stroke:#1a0a00;stroke-opacity:1"
         id="g12">
        <flowRoot
           style="font-style:normal;font-weight:normal;font-size:40px;line-height:1.25;font-family:sans-serif;letter-spacing:0px;word-spacing:0px;fill:#000000;fill-opacity:1;stroke:none"
           id="flowRoot4875"
           xml:space="preserve"><flowRegion
             id="flowRegion4877"><rect
               y="307.93399"
               x="127.49495"
               height="52.421783"
               width="167.36139"
               id="rect4879" /></flowRegion><flowPara
             id="flowPara4881" /></flowRoot>        <text
           id="text27"
           y="966.52869"
           x="-1580.6035"
           style="font-style:normal;font-variant:normal;font-weight:normal;font-stretch:normal;font-size:469.91116333px;line-height:1.25;font-family:'DM Serif Text';-inkscape-font-specification:'DM Serif Text';letter-spacing:0px;word-spacing:0px;fill:#1a0a00;fill-opacity:1;stroke:none;stroke-width:11.74777889"
           xml:space="preserve"><tspan
             style="fill:#1a0a00;fill-opacity:1;stroke-width:11.74777889"
             y="966.52869"
             x="-1580.6035"
             id="tspan25"
             sodipodi:role="line">LO  GA</tspan></text>
      </g>
    </g>
    <g
       style="fill:#1a0a00;fill-opacity:1;stroke:#1a0a00;stroke-opacity:1"
       id="g30"
       transform="matrix(0.20307935,0,0,0.20307935,319.31031,30.915521)">
      <g
         transform="matrix(0.88934824,0,0,0.88934824,-130.29834,32.936369)"
         style="fill:#1a0a00;fill-opacity:1;stroke:#1a0a00;stroke-opacity:1"
         id="g28">
        <g
           style="fill:#1a0a00;fill-opacity:1;stroke:#1a0a00;stroke-opacity:1"
           id="g20">
          <g
             style="fill:#1a0a00;fill-opacity:1;stroke:#1a0a00;stroke-opacity:1"
             id="g18">
            <path
               style="fill:#1a0a00;fill-opacity:1;stroke:#1a0a00;stroke-opacity:1"
               id="path16"
               d="m -1128.32,895.38 c 4.23,-20.36 8.61,-40.76 12.62,-61.23 0.8,-4.1 3.35,-3.86 6.17,-4.12 17.24,-1.6 34.11,-4.77 50.35,-11.1 23.6,-9.2 38.99,-25.81 45.71,-50.16 9.33,-33.8 10.62,-68.18 5.22,-102.66 -3.65,-23.33 -15.21,-33.38 -38.98,-36.59 -7.44,-1.01 -14.88,-2.05 -22.29,-3.25 -26.69,-4.32 -41.88,-24.43 -38.69,-51.11 1.78,-14.91 7.89,-27.95 16.79,-39.92 2.44,-3.28 5.34,-2.95 8.55,-3.07 3.83,-0.15 3.21,3.12 3.96,5.1 4.83,12.67 15.32,16.44 27.43,17.76 10.7,1.16 21.5,1.39 32.09,3.46 21.24,4.16 33.36,18.01 34.22,39.73 0.82,20.75 -1.28,41.41 -2.73,62.08 -1.94,27.62 -4.08,55.15 8.38,81.39 6.19,13.03 12.84,25.76 19.89,38.33 11.75,20.96 22.15,42.51 25.26,66.72 2.04,15.91 -0.46,31.14 -7.91,45.48 -1.67,3.21 -3.4,5.46 -7.76,5.28 -4.24,-0.17 -4.24,-3.38 -5.21,-5.67 -14.1,-33.24 -28.04,-66.54 -42.07,-99.81 -0.8,-1.9 -0.79,-4.55 -3.9,-4.71 -3.55,-0.18 -3.62,2.86 -4.44,4.89 -12.64,31.19 -25.3,62.39 -37.62,93.7 -1.8,4.57 -4.15,5.81 -8.84,6.03 -23.34,1.08 -46.66,2.63 -69.99,3.96 -1.96,0.12 -4.03,0.68 -6.21,-0.51 z"
               class="st1"
               inkscape:connector-curvature="0" />
          </g>
        </g>
        <g
           style="fill:#1a0a00;fill-opacity:1;stroke:#1a0a00;stroke-opacity:1"
           id="g26">
          <g
             style="fill:#1a0a00;fill-opacity:1;stroke:#1a0a00;stroke-opacity:1"
             id="g24">
            <path
               style="fill:#1a0a00;fill-opacity:1;stroke:#1a0a00;stroke-opacity:1"
               id="path22"
               d="m -1059.66,438.49 c -29.1,1.04 -51.35,-2.67 -73.58,0.49 -19.52,2.77 -33.32,12.65 -37.37,32.76 -7.11,35.27 -8.37,70.86 -3.61,106.54 1.63,12.23 7.5,22.78 15.54,32.16 18.21,21.25 36.26,42.64 54.47,63.88 15.1,17.6 22.91,37.15 17.33,60.68 -1.14,4.8 -1.18,9.81 0.04,14.73 2.37,9.59 8.44,14.17 19.26,14.44 10.03,0.25 16.53,-4.05 19.29,-13.16 4.5,-14.84 0.83,-28.84 -5.14,-42.37 -7.49,-17.01 -18.4,-31.79 -30.89,-45.42 -15.74,-17.18 -31.52,-34.34 -47.47,-51.33 -10.53,-11.21 -16.94,-24.25 -18.21,-39.56 -1.27,-15.33 -1.42,-30.7 1.85,-45.86 2.24,-10.41 8.88,-16.68 19.18,-19.22 10.22,-2.53 20.61,-3.2 31.07,-2.95 30.24,0.71 60.48,1.49 90.72,2.28 9.12,0.24 18.1,-0.38 26.78,-3.56 16.09,-5.9 22.46,-18.55 23.39,-34.47 1.36,-23.38 -3.88,-45.84 -10.59,-68.02 -2.39,-7.88 -5.08,-15.68 -7.22,-23.62 -3.42,-12.72 -0.93,-17.93 10.96,-23.82 5.66,-2.8 11.55,-5.16 17.09,-8.16 9.49,-5.12 12.88,-11.9 11.38,-22.37 -1.01,-7.1 -3.08,-13.91 -6.79,-20.14 -3.29,-5.52 -8.33,-5.75 -11.53,-0.27 -3.09,5.29 -7.67,8.43 -13.26,10.44 -3.62,1.3 -7.24,2.6 -10.78,4.09 -16.19,6.78 -20.5,15.3 -17.02,32.42 4.21,20.69 11.07,40.8 13.53,61.85 1.66,14.27 -2.05,28.59 -22.62,28.81 -20.88,0.21 -41.76,-0.91 -55.8,-1.27 z"
               class="st1"
               inkscape:connector-curvature="0" />
          </g>
        </g>
      </g>
    </g>
  </g>
  <g
     inkscape:label="Layer 1"
     inkscape:groupmode="layer"
     id="layer1"
     transform="translate(0,-187)" />
</svg>
