<?xml version="1.0" encoding="UTF-8" standalone="no"?>
<!-- Created with Inkscape (http://www.inkscape.org/) -->

<svg
   xmlns:dc="http://purl.org/dc/elements/1.1/"
   xmlns:cc="http://creativecommons.org/ns#"
   xmlns:rdf="http://www.w3.org/1999/02/22-rdf-syntax-ns#"
   xmlns:svg="http://www.w3.org/2000/svg"
   xmlns="http://www.w3.org/2000/svg"
   xmlns:sodipodi="http://sodipodi.sourceforge.net/DTD/sodipodi-0.dtd"
   xmlns:inkscape="http://www.inkscape.org/namespaces/inkscape"
   width="177mm"
   height="110mm"
   viewBox="0 0 177 110"
   version="1.1"
   id="svg867"
   inkscape:version="0.92.4 (5da689c313, 2019-01-14)"
   sodipodi:docname="logo.svg">
  <defs
     id="defs861" />
  <sodipodi:namedview
     id="base"
     pagecolor="#ffffff"
     bordercolor="#666666"
     borderopacity="1.0"
     inkscape:pageopacity="0.0"
     inkscape:pageshadow="2"
     inkscape:zoom="0.49497475"
     inkscape:cx="-843.97673"
     inkscape:cy="672.2607"
     inkscape:document-units="mm"
     inkscape:current-layer="svg867"
     showgrid="false"
     inkscape:window-width="1920"
     inkscape:window-height="1016"
     inkscape:window-x="0"
     inkscape:window-y="27"
     inkscape:window-maximized="1" />
  <metadata
     id="metadata864">
    <rdf:RDF>
      <cc:Work
         rdf:about="">
        <dc:format>image/svg+xml</dc:format>
        <dc:type
           rdf:resource="http://purl.org/dc/dcmitype/StillImage" />
        <dc:title />
      </cc:Work>
    </rdf:RDF>
  </metadata>
  <g
     id="g4748"
     inkscape:export-xdpi="96"
     inkscape:export-ydpi="96"
     transform="translate(-16.49999,-90.577948)">
    <g
       style="fill:#28170b;fill-opacity:1"
       id="g14"
       transform="matrix(0.12930314,0,0,0.12930314,220.58477,58.481171)">
      <g
         style="fill:#1a0a00;fill-opacity:1;stroke:#1a0a00;stroke-opacity:1"
         id="g12">
        <g
           style="font-style:normal;font-weight:normal;font-size:40px;line-height:1.25;font-family:sans-serif;letter-spacing:0px;word-spacing:0px;fill:#000000;fill-opacity:1;stroke:none"
           id="flowRoot4875" />
        <g
           aria-label="LO  GA"
           style="font-style:normal;font-variant:normal;font-weight:normal;font-stretch:normal;font-size:469.91116333px;line-height:1.25;font-family:'DM Serif Text';-inkscape-font-specification:'DM Serif Text';letter-spacing:0px;word-spacing:0px;fill:#1a0a00;fill-opacity:1;stroke:none;stroke-width:11.74777889"
           id="text27">
          <path
             d="m -1569.7956,966.52869 v -9.86814 l 9.3983,-2.81946 q 9.8681,-3.28938 12.6876,-8.45841 2.8194,-5.63893 2.8194,-15.50706 V 692.10057 q 0,-9.39823 -2.8194,-14.56725 -2.8195,-5.63893 -12.2177,-8.92831 l -9.8682,-2.81947 v -9.86813 h 116.538 v 9.86813 l -8.9283,2.81947 q -8.9283,3.28938 -12.2177,8.92831 -2.8195,5.63894 -2.8195,15.50707 v 259.39096 h 69.077 q 15.977,0 23.9655,-7.98849 7.9884,-7.98849 15.0371,-23.02565 l 17.3867,-39.00262 h 13.1575 l -4.6991,84.1141 z"
             style="fill:#1a0a00;fill-opacity:1;stroke-width:11.74777889"
             id="path25"
             inkscape:connector-curvature="0" />
          <path
             d="m -1177.2141,974.51718 q -28.6646,0 -54.9797,-10.33805 -26.315,-10.33804 -47.461,-30.54422 -20.6761,-20.6761 -32.8938,-51.22032 -12.2176,-30.54423 -12.2176,-71.4265 0,-39.94245 12.2176,-70.48667 12.2177,-30.54423 32.8938,-51.22032 21.146,-20.67609 47.461,-31.01414 26.785,-10.80795 54.9797,-10.80795 28.1946,0 54.5097,10.33804 26.7849,10.33805 47.461,31.01414 20.6761,20.20618 32.8938,50.7504 12.2176,30.54423 12.2176,71.4265 0,39.94245 -12.2176,70.48668 -12.2177,30.54422 -32.8938,51.22031 -20.6761,20.67609 -46.9911,31.48405 -26.3151,10.33805 -54.9796,10.33805 z m 0,-14.09734 q 26.7849,0 43.2318,-13.62742 16.4469,-14.09734 23.9655,-46.99112 7.5185,-32.89378 7.5185,-88.81321 0,-55.91943 -7.5185,-88.3433 -7.5186,-32.89378 -23.9655,-46.5212 -16.4469,-14.09734 -43.2318,-14.09734 -26.3151,0 -43.2319,14.09734 -16.4469,13.62742 -23.9654,46.5212 -7.5186,32.42387 -7.5186,88.3433 0,55.91943 7.5186,88.81321 7.5185,32.89378 23.9654,46.99112 16.9168,13.62742 43.2319,13.62742 z"
             style="fill:#1a0a00;fill-opacity:1;stroke-width:11.74777889"
             id="path27"
             inkscape:connector-curvature="0" />
          <path
             d="m -641.36121,974.51718 q -47.93094,0 -84.1141,-20.20618 -36.18316,-20.20618 -56.85925,-56.85925 -20.20618,-37.12299 -20.20618,-86.93357 0,-48.87076 19.73627,-85.52383 20.20618,-36.65307 58.26898,-56.85925 38.06281,-20.67609 91.16277,-20.67609 25.3752,0 46.99112,5.63893 22.08582,5.63893 41.35218,16.44689 l 1.87964,67.1973 h -12.6876 l -23.49556,-47.46103 q -5.63893,-11.27787 -10.80795,-16.44689 -5.16903,-5.16902 -13.62743,-7.51858 -6.10884,-2.34955 -11.74778,-2.81947 -5.63893,-0.93982 -14.56724,-0.93982 -29.60441,0 -52.16014,15.50707 -22.55574,15.03716 -35.24334,47.93094 -12.21769,32.89378 -12.21769,85.52383 0,79.41499 25.84511,115.12824 26.31503,35.24333 70.01677,35.24333 10.33804,0 17.85662,-2.81946 8.92831,-1.40974 12.21769,-7.04867 3.28938,-6.10885 3.28938,-15.03716 0,-19.26636 -0.46991,-41.82209 0,-23.02565 0,-41.8221 0,-18.32653 -19.26636,-22.55573 l -21.146,-4.69911 v -9.86814 h 129.69548 v 9.86814 l -5.63893,1.40973 q -8.92832,2.81947 -13.62743,8.4584 -4.69911,5.16902 -4.69911,14.56725 0,18.79644 -0.46991,38.53271 0,19.26636 0,39.00263 v 20.20618 q -24.43538,13.15751 -49.81058,20.20618 -24.9053,7.04867 -55.44952,7.04867 z"
             style="fill:#1a0a00;fill-opacity:1;stroke-width:11.74777889"
             id="path29"
             inkscape:connector-curvature="0" />
          <path
             d="m -513.58941,966.52869 v -9.86814 l 12.68761,-3.75929 q 9.86813,-2.81946 15.03715,-8.4584 5.63894,-5.63893 8.92831,-15.50707 l 94.92206,-274.42812 h 39.00263 l 94.45214,276.30777 q 3.75929,10.33804 8.4584,15.97698 4.69911,5.16902 15.03716,8.4584 l 7.04867,1.87964 v 9.39823 h -119.35744 v -9.39823 l 7.98849,-2.34955 q 10.33805,-3.28938 12.21769,-10.33805 2.34956,-7.04867 -0.93982,-17.38671 l -19.73627,-60.61854 H -441.693 l -20.20618,59.67872 q -3.28938,10.33804 -1.87964,16.9168 1.40973,6.57875 11.74778,10.33804 l 10.33804,3.28938 v 9.86814 z m 76.59552,-113.71851 h 94.92206 l -46.0513,-141.44326 z"
             style="fill:#1a0a00;fill-opacity:1;stroke-width:11.74777889"
             id="path31"
             inkscape:connector-curvature="0" />
        </g>
      </g>
    </g>
    <g
       style="fill:#1a0a00;fill-opacity:1;stroke:#1a0a00;stroke-opacity:1"
       id="g30"
       transform="matrix(0.20307935,0,0,0.20307935,319.31031,30.915521)">
      <g
         transform="matrix(0.88934824,0,0,0.88934824,-130.29834,32.936369)"
         style="fill:#1a0a00;fill-opacity:1;stroke:#1a0a00;stroke-opacity:1"
         id="g28">
        <g
           style="fill:#1a0a00;fill-opacity:1;stroke:#1a0a00;stroke-opacity:1"
           id="g20">
          <g
             style="fill:#1a0a00;fill-opacity:1;stroke:#1a0a00;stroke-opacity:1"
             id="g18">
            <path
               style="fill:#1a0a00;fill-opacity:1;stroke:#1a0a00;stroke-opacity:1"
               id="path16"
               d="m -1128.32,895.38 c 4.23,-20.36 8.61,-40.76 12.62,-61.23 0.8,-4.1 3.35,-3.86 6.17,-4.12 17.24,-1.6 34.11,-4.77 50.35,-11.1 23.6,-9.2 38.99,-25.81 45.71,-50.16 9.33,-33.8 10.62,-68.18 5.22,-102.66 -3.65,-23.33 -15.21,-33.38 -38.98,-36.59 -7.44,-1.01 -14.88,-2.05 -22.29,-3.25 -26.69,-4.32 -41.88,-24.43 -38.69,-51.11 1.78,-14.91 7.89,-27.95 16.79,-39.92 2.44,-3.28 5.34,-2.95 8.55,-3.07 3.83,-0.15 3.21,3.12 3.96,5.1 4.83,12.67 15.32,16.44 27.43,17.76 10.7,1.16 21.5,1.39 32.09,3.46 21.24,4.16 33.36,18.01 34.22,39.73 0.82,20.75 -1.28,41.41 -2.73,62.08 -1.94,27.62 -4.08,55.15 8.38,81.39 6.19,13.03 12.84,25.76 19.89,38.33 11.75,20.96 22.15,42.51 25.26,66.72 2.04,15.91 -0.46,31.14 -7.91,45.48 -1.67,3.21 -3.4,5.46 -7.76,5.28 -4.24,-0.17 -4.24,-3.38 -5.21,-5.67 -14.1,-33.24 -28.04,-66.54 -42.07,-99.81 -0.8,-1.9 -0.79,-4.55 -3.9,-4.71 -3.55,-0.18 -3.62,2.86 -4.44,4.89 -12.64,31.19 -25.3,62.39 -37.62,93.7 -1.8,4.57 -4.15,5.81 -8.84,6.03 -23.34,1.08 -46.66,2.63 -69.99,3.96 -1.96,0.12 -4.03,0.68 -6.21,-0.51 z"
               class="st1"
               inkscape:connector-curvature="0" />
          </g>
        </g>
        <g
           style="fill:#1a0a00;fill-opacity:1;stroke:#1a0a00;stroke-opacity:1"
           id="g26">
          <g
             style="fill:#1a0a00;fill-opacity:1;stroke:#1a0a00;stroke-opacity:1"
             id="g24">
            <path
               style="fill:#1a0a00;fill-opacity:1;stroke:#1a0a00;stroke-opacity:1"
               id="path22"
               d="m -1059.66,438.49 c -29.1,1.04 -51.35,-2.67 -73.58,0.49 -19.52,2.77 -33.32,12.65 -37.37,32.76 -7.11,35.27 -8.37,70.86 -3.61,106.54 1.63,12.23 7.5,22.78 15.54,32.16 18.21,21.25 36.26,42.64 54.47,63.88 15.1,17.6 22.91,37.15 17.33,60.68 -1.14,4.8 -1.18,9.81 0.04,14.73 2.37,9.59 8.44,14.17 19.26,14.44 10.03,0.25 16.53,-4.05 19.29,-13.16 4.5,-14.84 0.83,-28.84 -5.14,-42.37 -7.49,-17.01 -18.4,-31.79 -30.89,-45.42 -15.74,-17.18 -31.52,-34.34 -47.47,-51.33 -10.53,-11.21 -16.94,-24.25 -18.21,-39.56 -1.27,-15.33 -1.42,-30.7 1.85,-45.86 2.24,-10.41 8.88,-16.68 19.18,-19.22 10.22,-2.53 20.61,-3.2 31.07,-2.95 30.24,0.71 60.48,1.49 90.72,2.28 9.12,0.24 18.1,-0.38 26.78,-3.56 16.09,-5.9 22.46,-18.55 23.39,-34.47 1.36,-23.38 -3.88,-45.84 -10.59,-68.02 -2.39,-7.88 -5.08,-15.68 -7.22,-23.62 -3.42,-12.72 -0.93,-17.93 10.96,-23.82 5.66,-2.8 11.55,-5.16 17.09,-8.16 9.49,-5.12 12.88,-11.9 11.38,-22.37 -1.01,-7.1 -3.08,-13.91 -6.79,-20.14 -3.29,-5.52 -8.33,-5.75 -11.53,-0.27 -3.09,5.29 -7.67,8.43 -13.26,10.44 -3.62,1.3 -7.24,2.6 -10.78,4.09 -16.19,6.78 -20.5,15.3 -17.02,32.42 4.21,20.69 11.07,40.8 13.53,61.85 1.66,14.27 -2.05,28.59 -22.62,28.81 -20.88,0.21 -41.76,-0.91 -55.8,-1.27 z"
               class="st1"
               inkscape:connector-curvature="0" />
          </g>
        </g>
      </g>
    </g>
  </g>
  <g
     inkscape:label="Layer 1"
     inkscape:groupmode="layer"
     id="layer1"
     transform="translate(0,-187)" />
</svg>
